<svg width="72" height="44" viewBox="0 0 72 44" xmlns="http://www.w3.org/2000/svg"><g stroke="#2E5841" fill="none" fill-rule="evenodd" stroke-linecap="round" stroke-linejoin="round"><path d="M53.44 37.31l-31.853-.248m35.754-24.111l5.99 8.156 6.152 5.034c.501.41.792 1.023.792 1.67v6.157a3.342 3.342 0 01-3.342 3.342h-2.83m-52.958 0l-6.801-1.057a3.156 3.156 0 01-2.671-3.119V10.861" stroke-width="2"/><path d="M46.917 12.268V37.31m17.185-15.572H46.916m2.516 3.8h2.075m-13.994 0h2.075"/><path d="M21.586 37.017a5.22 5.22 0 11-10.44 0 5.22 5.22 0 0110.44 0h0zm42.295 0a5.22 5.22 0 11-10.44 0 5.22 5.22 0 0110.44 0h0zM66.733 7.46c0-2.705-1.78-5.17-4.41-5.803a5.902 5.902 0 00-1.385-.164H33.054a6.086 6.086 0 00-3.897 1.402c-2.466 2.042-5.518 3.245-8.72 3.245H4.607a2.933 2.933 0 00-2.934 2.933v1.788c0 .778.63 1.408 1.407 1.408H64.9a1.834 1.834 0 001.833-1.835V7.46h0zm-5.001-.028h-12.3" stroke-width="2"/><path d="M31.55 1.492H4.077a2.404 2.404 0 00-2.404 2.405v5.176m8.192-7.581V6.14m6.747-4.648V6.14" stroke-width="2"/><path d="M9.865 21.518h14.662v-5.19H9.865zm20.561 15.668h11.095V16.33H30.426z"/></g></svg>