<svg width="72" height="47" viewBox="0 0 72 47" xmlns="http://www.w3.org/2000/svg"><g stroke="#2E5841" fill="none" fill-rule="evenodd" stroke-linecap="round" stroke-linejoin="round"><path d="M53.61 40.043l-32.163-.253m-10.543.253l-9.564-1.5V23.754l2.762-9.217h51.42l8.074 9.002 6.213 5.128c.505.417.799 1.04.799 1.7v9.675h-6.233M4.102 14.539L53.61 1.25" stroke-width="2"/><path d="M26.837 14.539v25.504m20.186-25.504v25.504m17.352-15.86H1.425m48.137 3.87h2.096m-8.948 0h2.095M50.61 2.055V14.54"/><path d="M21.446 39.745c0 2.936-2.36 5.316-5.27 5.316-2.912 0-5.272-2.38-5.272-5.316 0-2.937 2.36-5.317 5.271-5.317s5.271 2.38 5.271 5.317h0zm42.706 0c0 2.936-2.36 5.316-5.271 5.316s-5.272-2.38-5.272-5.316c0-2.937 2.36-5.317 5.272-5.317 2.91 0 5.271 2.38 5.271 5.317h0z" stroke-width="2"/></g></svg>