<svg width="72" height="34" viewBox="0 0 72 34" xmlns="http://www.w3.org/2000/svg"><g stroke="#2E5841" fill="none" fill-rule="evenodd" stroke-linecap="round" stroke-linejoin="round"><path d="M54.398 27.716l-33.934-.235m-9.872.235H4.435a2.799 2.799 0 01-2.799-2.798V4.294a2.799 2.799 0 012.799-2.8h57.996a2.99 2.99 0 012.788 1.91l5.096 17.582v6.73h-5.059" stroke-width="2"/><path d="M20.463 27.44a4.936 4.936 0 11-9.87 0 4.936 4.936 0 019.87 0h0zm43.807 0a4.936 4.936 0 11-9.872 0 4.936 4.936 0 019.872 0h0z" stroke-width="2"/><path d="M70.315 20.986l-20.632-3.372V7.997h16.988m-24.307 8.707h1.962m-8.662 11.012h10.49V7.996h-10.49zM57.32 7.997v10.866M5.97 10.45h9.244V5.543H5.97zm16.313 2.453h9.736V7.997h-9.736z"/></g></svg>