<svg width="72" height="34" viewBox="0 0 72 34" xmlns="http://www.w3.org/2000/svg"><g stroke="#2E5841" fill="none" fill-rule="evenodd" stroke-linecap="round" stroke-linejoin="round"><path d="M53.61 27.162l-32.163-.253m-10.543.253l-9.564-1.5V10.874l2.762-9.216h51.42l8.074 9.001 6.213 5.128c.505.417.799 1.041.799 1.7v9.675h-6.233" stroke-width="2"/><path d="M26.837 1.658v25.504M47.023 1.658v25.504m17.352-15.86H26.922m22.64 3.871h2.096m-8.948 0h2.095"/><path d="M21.446 26.864c0 2.937-2.36 5.317-5.27 5.317-2.912 0-5.272-2.38-5.272-5.317 0-2.937 2.36-5.317 5.271-5.317s5.271 2.38 5.271 5.317h0zm42.706 0c0 2.937-2.36 5.317-5.271 5.317s-5.272-2.38-5.272-5.317c0-2.937 2.36-5.317 5.272-5.317 2.91 0 5.271 2.38 5.271 5.317h0z" stroke-width="2"/></g></svg>