<svg width="59" height="28" viewBox="0 0 59 28" xmlns="http://www.w3.org/2000/svg"><g transform="translate(1 1)" fill="none" fill-rule="evenodd"><path d="M55.825 18.214v-4.863c0-.822-9.389-4.377-9.389-4.377S39.15 2.81 38.012 1.932A6.394 6.394 0 0033.952.26H4.176C2.634.131 1.226 1.114.863 2.572.58 3.422.276 8.559.276 8.559v9.655c0 1.588 1.094 2.488 2.798 2.488h4.35c0-2.523 2.11-4.568 4.712-4.568 2.603 0 4.713 2.045 4.713 4.568h22.968c0-2.523 2.11-4.568 4.712-4.568 2.603 0 4.713 2.045 4.713 4.568h3.864c1.929 0 2.762-.359 2.762-2.488"/><path d="M57 14.553v2.256" stroke="#295641" stroke-width="2" stroke-linecap="round" stroke-linejoin="round"/><path d="M26 1.37v18.502M.297 8h45.516" stroke="#295641" stroke-linecap="round" stroke-linejoin="round"/><circle stroke="#295641" stroke-width="2" cx="12.344" cy="20.83" r="4.935"/><circle stroke="#295641" stroke-width="2" cx="44.339" cy="20.83" r="4.935"/><path d="M29.747 12.199l.667.646" stroke="#295641" stroke-linecap="round" stroke-linejoin="round"/><path d="M17.436 20.378h21.62" stroke="#295641" stroke-width="1.45" stroke-linecap="round" stroke-linejoin="round"/><path d="M49.597 20.702h3.487c1.929 0 2.763-.366 2.763-2.488v-4.863c0-.822-9.389-4.377-9.389-4.377S39.15 2.81 38.012 1.932A6.394 6.394 0 0033.952.26H4.176C2.634.131 1.226 1.114.863 2.572.58 3.422.276 8.559.276 8.559v9.655c0 1.588 1.094 2.488 2.798 2.488h4.27" stroke="#295641" stroke-width="2" stroke-linecap="round" stroke-linejoin="round"/></g></svg>