<svg width="72" height="38" viewBox="0 0 72 38" xmlns="http://www.w3.org/2000/svg"><g stroke="#2E5841" fill="none" fill-rule="evenodd" stroke-linecap="round" stroke-linejoin="round"><path d="M54.694 31.453l-34.578-.23m38.079-22.54l5.684 7.724 5.713 4.675c.465.38.735.95.735 1.55v8.821h-5.732m-54.175 0l-5.812-.903a3.525 3.525 0 01-2.983-3.483V8.2" stroke-width="2"/><path d="M48.637 8.2v23.253m15.958-14.46H48.637m2.336 3.529H52.9"/><path d="M20.116 31.181a4.848 4.848 0 11-9.695 0 4.848 4.848 0 019.695 0h0zm44.274 0a4.848 4.848 0 11-9.695 0 4.848 4.848 0 019.695 0h0z" stroke-width="2"/><path d="M6.022 16.789h13.786V11.97H6.023zm30.751 0h9.08V11.97h-9.08zm-7.053 3.733h1.926m-8.507 10.816H33.44V11.971h-10.3z"/><path d="M1.625 8.2V5.055c0-2.021 1.253-3.658 2.799-3.658h52.038c3.158 0 5.762 2.03 6.12 5.878a.855.855 0 01-.855.925H1.625m56.001-3.402h-6.653" stroke-width="2"/></g></svg>