<svg width="71" height="40" viewBox="0 0 71 40" xmlns="http://www.w3.org/2000/svg"><g stroke="#2E5841" fill="none" fill-rule="evenodd" stroke-linecap="round" stroke-linejoin="round"><path d="M30.26 33.492a5.17 5.17 0 11-10.34 0 5.17 5.17 0 0110.34 0h0z" stroke-width="2"/><path d="M19.919 33.492H9.81c-4.497 0-8.143-3.471-8.143-7.753V9.419c0-4.281 3.646-7.752 8.143-7.752h42.817c4.497 0 8.143 3.47 8.143 7.752v16.32c0 4.282-3.646 7.753-8.143 7.753H30.282" stroke-width="2"/><path d="M26.026 18.916H11.73a2.747 2.747 0 01-2.747-2.746v-6.14a2.747 2.747 0 012.747-2.747h14.296a2.747 2.747 0 012.747 2.747v6.14a2.747 2.747 0 01-2.747 2.746h0zM18.878 7.283v11.633M1.667 23.69H36.09m13.941 0h10.74m-15.776-4.835h2.608M36.09 33.492h13.941V7.283H36.09z"/><path d="M50.031 33.492h19.793m0-3.536v7.07" stroke-width="2"/></g></svg>