<svg width="32" height="32" fill="none" xmlns="http://www.w3.org/2000/svg" xmlns:xlink="http://www.w3.org/1999/xlink" viewBox="0 0 24 24" class="FeatureCard_icon__3Ty6U" aria-hidden="true"><path fill="currentColor" fill-rule="evenodd" d="M17.055 4.144c.338-.215.483-.358.521-.423l1.3.748c-.24.413-.677.723-1.015.938-.215.136-.48.287-.713.42-.135.077-.258.147-.356.205a12.684 12.684 0 01-.577.324c-.16.088-.28.16-.392.244-.207.157-.446.403-.783.985l-1.183 2.04c-.053.121-.131.32-.2.538-.08.248-.13.474-.14.629l-1.5-.088c.04-.639.352-1.43.486-1.725l.015-.034 1.222-2.108c.403-.696.764-1.117 1.176-1.429.198-.15.393-.263.572-.362l.157-.086c.124-.068.242-.132.377-.212.16-.096.308-.18.45-.26.198-.112.385-.218.582-.344zm3.086 1.892c.018-.4.07-.597.108-.662l-1.3-.748c-.24.413-.29.946-.308 1.345-.012.253-.01.558-.01.826.002.154.002.296 0 .409-.003.19.001.368.005.518l.003.142c.003.182 0 .321-.017.46-.033.257-.127.586-.464 1.167l-.657 1.133 1.3.748.657-1.133c.403-.696.589-1.217.654-1.729.031-.245.032-.47.029-.674l-.004-.178a10.092 10.092 0 01-.004-.432 20.96 20.96 0 000-.518c0-.227-.002-.44.008-.674z" clip-rule="evenodd"/><path fill="#fff" d="M18.331 2.865c.277-.478.89-.642 1.369-.366l.604.347a.996.996 0 01.365 1.364l-.51.881-2.338-1.344.51-.882z"/><path fill="currentColor" fill-rule="evenodd" d="M17.681 2.491a1.757 1.757 0 012.395-.641l.604.347a1.743 1.743 0 01.64 2.386l-.512.882a.753.753 0 01-1.026.275l-2.337-1.345a.747.747 0 01-.274-1.023l.51-.88zm1.643.656a.251.251 0 00-.342.092l-.135.232 1.037.597.135-.232a.249.249 0 00-.091-.341l-.604-.348zM19 10l-5-3 .772-1.286 5 3L19 10z" clip-rule="evenodd"/><g fill="currentColor" fill-rule="evenodd" clip-rule="evenodd"><path d="M4.519 7.703a.747.747 0 01.375-.631L8.928 4.75a.753.753 0 01.737-.007l.005.002.013.007.046.026a19.798 19.798 0 01.671.39c.188.115.391.245.564.369.085.061.174.128.252.197.062.055.179.162.262.306l.001.001 2.67 4.582a.747.747 0 01-.271 1.024.753.753 0 01-1.027-.273L10.213 6.85a2 2 0 00-.125-.096 7.973 7.973 0 00-.47-.306 17.02 17.02 0 00-.31-.184l-3.29 1.892c0 .11.002.234.005.36.006.203.015.401.031.558.007.07.014.121.02.156l.81 1.397a.747.747 0 01-.273 1.023.753.753 0 01-1.027-.275l-.843-1.456a1.27 1.27 0 01-.136-.38 3.266 3.266 0 01-.045-.317 9.344 9.344 0 01-.038-.67 19.591 19.591 0 01-.005-.775l.001-.052v-.022z"/><path d="M3.628 8.349a.75.75 0 01.279-1.024L9.605 4.07a.75.75 0 11.744 1.302L4.65 8.628a.75.75 0 01-1.023-.28z"/></g><path fill="currentColor" fill-rule="evenodd" d="M2.443 10.498A.75.75 0 013 10.25h18a.75.75 0 01.746.828l-.77 7.413a4.75 4.75 0 01-4.725 4.259H7.749a4.75 4.75 0 01-4.724-4.259l-.771-7.413a.75.75 0 01.189-.58zm1.389 1.252l.685 6.586a3.25 3.25 0 003.232 2.914h8.502a3.25 3.25 0 003.232-2.914l.685-6.586H3.832z" clip-rule="evenodd"/><path fill="currentColor" fill-rule="evenodd" d="M3.248 10.335a.748.748 0 01.44.964l-2.235 5.963a.752.752 0 01-.966.44.748.748 0 01-.44-.964l2.235-5.963a.752.752 0 01.966-.44zm17.597-.004a.748.748 0 00-.451.959l2.15 5.963c.14.39.57.592.96.452a.748.748 0 00.452-.958l-2.15-5.963a.752.752 0 00-.96-.453z" clip-rule="evenodd"/></svg>