<svg width="32" height="32" fill="none" xmlns="http://www.w3.org/2000/svg" xmlns:xlink="http://www.w3.org/1999/xlink" viewBox="0 0 25 24" class="FeatureCard_icon__3Ty6U" aria-hidden="true"><path fill="#666" fill-rule="evenodd" d="M20.394 20.324c.31-.55.512-1.17.581-1.833l.451-4.338 1.118 3.1c.14.39.57.592.96.452a.748.748 0 00.452-.958l-2.15-5.963a.751.751 0 00-.493-.465.75.75 0 00-.313-.069h-1.547l.005-.008c.403-.697.588-1.218.654-1.73.031-.245.032-.47.029-.674a26.31 26.31 0 00-.004-.178c-.003-.141-.006-.275-.004-.432a20.96 20.96 0 000-.518c0-.227-.002-.44.008-.674a4.72 4.72 0 01.013-.196c.26 0 .515-.134.654-.375l.511-.881a1.743 1.743 0 00-.64-2.387l-.603-.347a1.757 1.757 0 00-2.395.641l-.51.882a.747.747 0 00-.022.71l-.095.061a12.13 12.13 0 01-.582.344c-.142.08-.29.164-.45.26-.135.08-.253.144-.377.212l-.157.086c-.18.1-.374.212-.572.362-.412.312-.773.733-1.176 1.429l-.897 1.547-1.364-2.342v-.001c-.084-.144-.2-.25-.263-.306a3.29 3.29 0 00-.252-.197 8.502 8.502 0 00-.447-.296.75.75 0 00-.912-1.172L6.127 6.057l1.292 1.292 1.89-1.086c.095.055.201.118.309.184.174.106.342.214.47.306.057.041.098.073.125.096l1.9 3.26a4.308 4.308 0 00-.031.141H10.32l1.5 1.5h8.348l-.685 6.586a3.249 3.249 0 01-.212.865l1.123 1.123zm-.938 1.182l-1.062-1.062a3.242 3.242 0 01-2.143.806H7.749a3.25 3.25 0 01-3.232-2.914l-.685-6.586H9.7l-1.5-1.5H6.667l-.592-1.02a2.007 2.007 0 01-.02-.156 7.909 7.909 0 01-.032-.559 16.867 16.867 0 01-.005-.359l.055-.031-1.295-1.296-.871.498a.75.75 0 00.619 1.36c.006.18.017.367.034.535.01.105.025.214.045.316.017.082.052.236.136.381l.192.332H3a.75.75 0 00-.718.525L.047 16.738a.748.748 0 00.44.964.752.752 0 00.966-.44l1.13-3.017.442 4.246a4.75 4.75 0 004.724 4.26h8.502a4.739 4.739 0 003.205-1.245zM18.157 9.494l-.438.756h-3.788l-.192-.329a5.97 5.97 0 01.118-.295l1.166-2.012 3.134 1.88zm-2.133-3.029l2.616 1.57-.001-.169-.003-.142c-.004-.15-.008-.328-.005-.518.002-.113.001-.255 0-.409 0-.268-.002-.572.01-.825.01-.245.034-.54.106-.828l-.297-.17a4.55 4.55 0 01-.59.433c-.214.136-.479.287-.712.42-.135.077-.258.147-.356.205a12.685 12.685 0 01-.577.324c-.07.038-.133.074-.19.11z" clip-rule="evenodd"/><path fill="#666" d="M23.78 22.77a.79.79 0 01-.53.22.64.64 0 01-.35-.1.57.57 0 01-.18-.12l-8.48-8.48-13-13a1.09 1.09 0 01-.13-.17.75.75 0 011.18-.9l12 12 9.54 9.54a.75.75 0 01-.05 1.01z"/></svg>