<svg xmlns:xlink="http://www.w3.org/1999/xlink" xmlns="http://www.w3.org/2000/svg" fill="none" width="22" height="24" viewBox="0 0 22 24" class="mx-2" data-size="normal"><g fill="#2a5913"><path d="M15.196 13.686c-.907 0-1.7-.73-1.7-1.686 0-.955.736-1.686 1.7-1.686s1.701.73 1.701 1.686-.794 1.686-1.7 1.686zm5.755-2.726h-2.154c-.454-1.574-1.9-2.726-3.6-2.726-1.702 0-3.148 1.152-3.601 2.726H1.049C.482 10.96 0 11.41 0 12c0 .562.454 1.04 1.05 1.04h10.517c.454 1.574 1.9 2.726 3.6 2.726 1.702 0 3.148-1.152 3.601-2.726h2.155c.567 0 1.049-.45 1.049-1.04.028-.562-.425-1.04-1.02-1.04zM6.89 2.08c.906 0 1.7.73 1.7 1.686 0 .955-.737 1.686-1.7 1.686a1.698 1.698 0 01-1.702-1.686c0-.9.794-1.686 1.701-1.686zM1.048 4.806h2.24c.453 1.573 1.9 2.726 3.6 2.726 1.701 0 3.147-1.153 3.6-2.726h10.462c.567 0 1.049-.45 1.049-1.04 0-.59-.454-1.04-1.049-1.04H10.49C10.036 1.152 8.59 0 6.89 0 5.187 0 3.741 1.152 3.288 2.726h-2.24C.482 2.726 0 3.176 0 3.766c0 .59.454 1.04 1.049 1.04zM6.89 21.92c-.908 0-1.702-.73-1.702-1.686 0-.955.737-1.686 1.701-1.686.964 0 1.701.73 1.701 1.686s-.794 1.686-1.7 1.686zm14.061-2.726H10.49c-.454-1.573-1.9-2.726-3.6-2.726-1.702 0-3.148 1.152-3.601 2.726h-2.24c-.567 0-1.049.45-1.049 1.04 0 .59.454 1.04 1.049 1.04h2.24c.453 1.574 1.9 2.726 3.6 2.726 1.701 0 3.147-1.152 3.6-2.726h10.462c.567 0 1.049-.45 1.049-1.04 0-.59-.454-1.04-1.049-1.04z" fill="#2a5913"></path></g></svg>