<svg width="32" height="32" fill="none" viewBox="0 0 24 24" class="FeatureCard_icon__3Ty6U" aria-hidden="true"><path fill="currentColor" fill-rule="evenodd" d="M5 15.75a3.25 3.25 0 100 6.5 3.25 3.25 0 000-6.5zM.25 19a4.75 4.75 0 119.5 0 4.75 4.75 0 01-9.5 0z" clip-rule="evenodd"/><path fill="currentColor" fill-rule="evenodd" d="M20.25 2.384a.25.25 0 00-.328-.237l-10 3.308a.25.25 0 00-.172.237V19a.75.75 0 01-1.5 0V5.692a1.75 1.75 0 011.2-1.661l10-3.308a1.75 1.75 0 012.3 1.661v13.657a.75.75 0 01-1.5 0V2.384z" clip-rule="evenodd"/><path fill="currentColor" fill-rule="evenodd" d="M17 12.75a3.25 3.25 0 100 6.5 3.25 3.25 0 000-6.5zM12.25 16a4.75 4.75 0 119.5 0 4.75 4.75 0 01-9.5 0z" clip-rule="evenodd"/></svg>