<svg width="32" height="32" fill="none" viewBox="0 0 25 24" class="FeatureCard_icon__3Ty6U" aria-hidden="true"><path fill="#666" fill-rule="evenodd" d="M19.922 2.147a.25.25 0 01.328.237v10.152A4.734 4.734 0 0017 11.25a4.743 4.743 0 00-3.792 1.888l.082.082.994.994a3.25 3.25 0 114.502 4.502l1.076 1.076a4.743 4.743 0 001.888-3.75V2.383a1.75 1.75 0 00-2.3-1.661l-10 3.308a1.75 1.75 0 00-1.2 1.661V8.18l1.5 1.5V5.692a.25.25 0 01.171-.237l10-3.308zM9.75 11.8l-1.5-1.5v5.236a4.75 4.75 0 101.5 3.467V11.8zm8.719 8.719l-1.275-1.275a3.25 3.25 0 01-3.438-3.438l-.516-.516-.759-.759a4.75 4.75 0 005.987 5.987zM8.25 19a3.25 3.25 0 10-6.5 0 3.25 3.25 0 006.5 0z" clip-rule="evenodd"/><path fill="#666" d="M23.78 22.77a.79.79 0 01-.53.22.64.64 0 01-.35-.1.57.57 0 01-.18-.12l-8.48-8.48-13-13a1.09 1.09 0 01-.13-.17.75.75 0 011.18-.9l12 12 9.54 9.54a.75.75 0 01-.05 1.01z"/></svg>