<svg width="32" height="32" viewBox="0 0 24 24" xmlns="http://www.w3.org/2000/svg" xmlns:xlink="http://www.w3.org/1999/xlink" fill="none" class="FeatureCard_icon__3Ty6U" aria-hidden="true"><path fill="#666" stroke="#fff" stroke-width=".2" d="M12.51 5.535h0v-.01A3.35 3.35 0 0115.63 2a3.35 3.35 0 013.13 3.525h0v.01a3.34 3.34 0 01-3.13 3.515 3.34 3.34 0 01-3.12-3.515zm1.8-.005c0 .46.146.887.383 1.2.236.313.568.52.937.52.374 0 .708-.206.946-.52a2 2 0 00.384-1.2c0-.462-.157-.891-.4-1.206-.24-.313-.574-.524-.93-.524-.356 0-.687.21-.926.524a2.01 2.01 0 00-.394 1.206zM5.87 3.11l.08.06a2.9 2.9 0 011.933-1.13 2.971 2.971 0 012.388.773 3.9 3.9 0 011.18 2.31h0a3.712 3.712 0 01-.76 2.815h0A2.99 2.99 0 019.078 8.99h-.036l-3.83-3.849a.14.14 0 01.005-.046l.002-.009v-.009a3.6 3.6 0 01.555-1.672 2.14 2.14 0 01.112-.152l.064-.083zm2.25.68h0l-.007.001a1.179 1.179 0 00-.816.563.436.436 0 00-.07.139 1.97 1.97 0 00-.196 1.18c.058.456.26.859.535 1.138.255.259.579.418.914.405l.013.039.086-.017a1.159 1.159 0 00.84-.663 1.98 1.98 0 00.23-1.248 1.99 1.99 0 00-.6-1.209 1.18 1.18 0 00-.928-.328zM5.683 9.835h0l.003.01a3.04 3.04 0 01-1.72 3.88c-.26.08-.53.12-.803.115a3.17 3.17 0 01-2.907-2.317h0v-.002A3.55 3.55 0 01.1 10.48h0v-.005a2.9 2.9 0 011.928-2.84 3.05 3.05 0 013.655 2.2zm-2.304 2.17l.01-.003.01-.005a1.28 1.28 0 00.566-1.58 1.717 1.717 0 00-.569-.869c-.25-.193-.551-.28-.835-.194l-.01.003-.009.005a1.28 1.28 0 00-.566 1.633c.111.351.32.643.57.828.25.186.55.27.833.183zm14.935-2.161h0l.003-.01a3.04 3.04 0 013.654-2.198 2.9 2.9 0 011.929 2.83v.003c-.004.353-.06.704-.165 1.04h0v.002a3.39 3.39 0 01-1.4 1.875 2.84 2.84 0 01-1.495.444c-.257 0-.512-.039-.757-.115a3.03 3.03 0 01-1.77-3.87zm3.063 2.068h0a1.67 1.67 0 00.636-.875 1.27 1.27 0 00-.557-1.686l-.015-.008-.017-.002a.79.79 0 00-.228 0 1.39 1.39 0 00-1.161 1.068 1.27 1.27 0 00.568 1.63l.01.005.012.003a.92.92 0 00.752-.135zm-2.262 7.152l-1.572-1.572a.595.595 0 00-.004-.094 3.5 3.5 0 00-.452-1.358s0 0 0 0l-2-3.549-.004-.008-.006-.007A3.97 3.97 0 0012 11.06s0 0 0 0l7.115 8.004zm0 0a4.49 4.49 0 00.138-2.471 5.538 5.538 0 00-.58-1.463v-.001l-2-3.58-.013-.023v-.071a5.9 5.9 0 00-4.659-2.185H12v0h-.06a5.9 5.9 0 00-2.137.422l1.428 1.428h.05l7.834 7.944zm-4.824 1.018v.001l.013.004a2.86 2.86 0 002.417-.445l1.244 1.245a4.18 4.18 0 01-2.853 1.053h0-.003a4.897 4.897 0 01-1.362-.176l-.013-.004h-.114a5.043 5.043 0 00-1.622-.4h-.015c-.56.038-1.11.174-1.624.4h-.112l-.013.003a.247.247 0 01-.008.002c-.11.03-.888.241-1.853.153-.99-.09-2.17-.495-3.03-1.733a4.9 4.9 0 01.002-5.133h0l.001-.001 2.098-3.576c.161-.219.346-.42.55-.598l1.252 1.27a4.1 4.1 0 00-.322.338l-.006.008-.005.008-1.999 3.518a3.1 3.1 0 00-.07 3.18l.003.008.006.006a2.7 2.7 0 002.835.883h0l.011-.004A6.67 6.67 0 0112 19.56c.788.04 1.564.216 2.291.522z"/><path fill="#fff" d="M22.51 22.51a1.12 1.12 0 01-.22-.16L9.6 9.66 9 9.09 5.14 5.2 1.65 1.71a.87.87 0 01-.16-.23.87.87 0 01.22.17l3.43 3.43 4 4 8.35 8.35 1.78 1.77 3.09 3.09c.059.067.109.14.15.22z"/><path fill="#666" d="M23.71 22.35a1 1 0 01-1.2.16 1.122 1.122 0 01-.22-.16L9.6 9.66 9 9.09 5.14 5.2 1.65 1.71a.87.87 0 01-.16-.23A1 1 0 013.06.29l2.83 2.82 1.44 1.45 2 2L10.77 8l1.17 1.17 7.41 7.4 4.36 4.36a1 1 0 010 1.42z"/></svg>