<svg width="32" height="32" fill="none" xmlns="http://www.w3.org/2000/svg" xmlns:xlink="http://www.w3.org/1999/xlink" viewBox="0 0 24 24" class="FeatureCard_icon__3Ty6U" aria-hidden="true"><g clip-path="url(#pet-friendly_svg__clip0)"><path fill="currentColor" fill-rule="evenodd" d="M11.29 4.071C10.96 2.276 9.673 1 8.257 1c-.13 0-.24.02-.364.04l-.065.012c-.758.156-1.415.677-1.82 1.483-.378.755-.505 1.692-.328 2.63.329 1.796 1.643 3.07 3.032 3.07a2 2 0 00.365-.04l.065-.011c.758-.157 1.415-.677 1.819-1.483.379-.755.505-1.692.329-2.63zm-2.433 2.64c.25-.058.544-.246.763-.682v-.002c.22-.437.316-1.036.196-1.678l-.002-.007c-.243-1.33-1.087-1.837-1.55-1.842l-.012.002a2.203 2.203 0 00-.062.01l-.05.008-.027.005c-.251.058-.545.246-.763.682v.002c-.22.437-.317 1.036-.196 1.678l.002.007c.241 1.321 1.104 1.836 1.55 1.842l.012-.002.062-.01.05-.008.027-.005zm-5.733.623l-.002-.002c-.27-.175-.495-.226-.648-.226-.046 0-.13.01-.273.051-.388.165-1 .998-.553 2.37.215.622.56 1.048.91 1.275h.002c.27.177.495.227.648.227.046 0 .13-.01.272-.05.387-.166.999-.996.556-2.365-.221-.618-.574-1.061-.912-1.28zm2.332.797c-.303-.86-.834-1.614-1.516-2.056-.48-.312-.985-.469-1.466-.469a2.57 2.57 0 00-.758.13c-1.44.522-2.096 2.422-1.49 4.27.303.884.834 1.613 1.516 2.055.48.312.985.469 1.466.469.252 0 .505-.052.758-.13 1.439-.52 2.096-2.42 1.49-4.268zM16.17 1.072c.783.156 1.415.676 1.82 1.484.378.755.505 1.692.328 2.629-.303 1.77-1.616 3.071-3.006 3.071-.135 0-.25-.02-.382-.043l-.048-.008c-.782-.156-1.414-.677-1.845-1.484-.379-.755-.505-1.692-.328-2.629.329-1.77 1.642-3.071 3.032-3.071.135 0 .25.02.382.043l.047.008zm-1.8 4.96c.258.475.543.646.792.699l.037.006.047.008.058.01.013.001c.437-.004 1.302-.533 1.523-1.824l.004-.025c.12-.64.025-1.24-.195-1.68-.23-.456-.506-.627-.759-.68l-.083-.015a1.929 1.929 0 00-.058-.01l-.014-.001c-.436.004-1.308.535-1.552 1.845v.004c-.12.633-.027 1.225.187 1.662zm7.43 1.1a1.027 1.027 0 00-.273-.05c-.189 0-.4.057-.617.205-.383.264-.733.711-.945 1.303-.443 1.37.168 2.2.556 2.364.142.041.226.05.272.05.19 0 .4-.056.617-.205.383-.263.733-.71.945-1.303.443-1.369-.168-2.198-.555-2.363zm.485-1.42a2.57 2.57 0 00-.758-.13c-.506 0-1.011.157-1.466.469-.682.468-1.213 1.197-1.516 2.055-.606 1.849.05 3.748 1.49 4.268.253.079.506.13.758.13.506 0 1.011-.156 1.466-.468.682-.469 1.213-1.198 1.516-2.056.607-1.847-.05-3.747-1.49-4.268zm-7.841 5.492l.007.006c1.158.967 2.359 2.108 3.258 3.29.924 1.215 1.383 2.283 1.383 3.133 0 .835-.515 1.638-1.858 2.314C15.89 20.622 13.99 21 12 21c-1.987 0-3.887-.384-5.23-1.062-1.349-.681-1.861-1.486-1.861-2.305 0-.85.46-1.918 1.383-3.133.9-1.182 2.1-2.323 3.258-3.29l.007-.006A3.774 3.774 0 0112 10.31c.87 0 1.737.299 2.443.895zM12 8.81a5.274 5.274 0 00-3.411 1.25c-2.4 2.004-5.18 4.893-5.18 7.574C3.409 20.86 7.704 22.5 12 22.5c4.296 0 8.591-1.613 8.591-4.867 0-2.68-2.78-5.57-5.18-7.574a5.274 5.274 0 00-3.41-1.25z" clip-rule="evenodd"/></g><defs><clipPath id="pet-friendly_svg__clip0"><path fill="#fff" d="M0 0h24v24H0z"/></clipPath></defs></svg>