<svg width="32" height="32" fill="none" xmlns="http://www.w3.org/2000/svg" xmlns:xlink="http://www.w3.org/1999/xlink" viewBox="0 0 25 24" class="FeatureCard_icon__3Ty6U" aria-hidden="true"><path fill="#666" d="M23.78 22.77a.79.79 0 01-.53.22.64.64 0 01-.35-.1.57.57 0 01-.18-.12l-8.48-8.48-13-13a1.09 1.09 0 01-.13-.17.75.75 0 011.18-.9l12 12 9.54 9.54a.75.75 0 01-.05 1.01z"/><path fill="#666" fill-rule="evenodd" d="M18.82 18.75H20A1.75 1.75 0 0021.75 17v-3A1.75 1.75 0 0020 12.25h-7.68l.97.97.53.53H20a.25.25 0 01.25.25v3a.25.25 0 01-.25.25h-2.68l1.5 1.5zm-7.12-5H7.5v3.5h7.7l1.5 1.5H2A1.75 1.75 0 01.25 17v-3c0-.966.784-1.75 1.75-1.75h8.2l1.5 1.5zm10.713-9.138a.75.75 0 10-.866-1.224c-.485.343-1.095.936-1.257 1.739-.184.91.256 1.778 1.257 2.485.394.28.57.504.645.654a.42.42 0 01.045.312c-.06.24-.317.53-.706.821a.75.75 0 00.898 1.202c.414-.31 1.068-.873 1.264-1.661a1.92 1.92 0 00-.16-1.348c-.222-.44-.602-.838-1.12-1.204-.697-.493-.68-.825-.653-.964.05-.248.29-.555.653-.812zm-3 0a.75.75 0 10-.866-1.224c-.485.343-1.095.936-1.257 1.739-.184.91.256 1.778 1.257 2.485.394.28.57.504.645.654a.42.42 0 01.045.312c-.06.24-.317.53-.706.821a.75.75 0 00.898 1.202c.414-.31 1.068-.873 1.264-1.661a1.92 1.92 0 00-.16-1.348c-.222-.44-.602-.838-1.12-1.204-.697-.493-.68-.825-.653-.964.05-.248.29-.555.653-.812zM6 13.75v3.5H2a.25.25 0 01-.25-.25v-3a.25.25 0 01.25-.25h4zM23.25 13a.75.75 0 01.75.75v3.5a.75.75 0 01-1.5 0v-3.5a.75.75 0 01.75-.75z" clip-rule="evenodd"/></svg>