<svg width="32" height="32" fill="none" viewBox="0 0 24 24" xmlns="http://www.w3.org/2000/svg" xmlns:xlink="http://www.w3.org/1999/xlink" class="FeatureCard_icon__3Ty6U" aria-hidden="true"><path fill="currentColor" fill-rule="evenodd" d="M19.592 3.567a.75.75 0 01-.18 1.045c-.363.257-.602.564-.652.812-.028.139-.044.471.653.964.518.366.898.764 1.12 1.204.23.457.266.92.16 1.348-.196.788-.85 1.351-1.264 1.66a.75.75 0 01-.898-1.2c.389-.291.647-.583.706-.822a.42.42 0 00-.045-.312c-.075-.15-.251-.375-.645-.654-1-.707-1.441-1.574-1.257-2.485.162-.803.772-1.396 1.257-1.74a.75.75 0 011.045.18z" clip-rule="evenodd"/><path fill="currentColor" fill-rule="evenodd" d="M22.592 3.567a.75.75 0 01-.18 1.045c-.363.257-.602.564-.652.812-.028.139-.044.471.653.964.518.366.898.764 1.12 1.204.23.457.266.92.16 1.348-.196.788-.85 1.351-1.264 1.66a.75.75 0 01-.898-1.2c.389-.291.647-.583.706-.822a.42.42 0 00-.045-.312c-.075-.15-.251-.375-.645-.654-1-.707-1.441-1.574-1.257-2.485.162-.803.772-1.396 1.257-1.74a.75.75 0 011.045.18zM21.75 14A1.75 1.75 0 0020 12.25H2A1.75 1.75 0 00.25 14v3c0 .966.784 1.75 1.75 1.75h18A1.75 1.75 0 0021.75 17v-3zM20 13.75a.25.25 0 01.25.25v3a.25.25 0 01-.25.25H2a.25.25 0 01-.25-.25v-3a.25.25 0 01.25-.25h18z" clip-rule="evenodd"/><path fill="currentColor" fill-rule="evenodd" d="M6.75 13a.75.75 0 01.75.75v3.5a.75.75 0 01-1.5 0v-3.5a.75.75 0 01.75-.75zm16.5 0a.75.75 0 01.75.75v3.5a.75.75 0 01-1.5 0v-3.5a.75.75 0 01.75-.75z" clip-rule="evenodd"/></svg>